<svg xmlns="http://www.w3.org/2000/svg" width="16" height="16" viewBox="0 0 16 16">
    <g fill="none" fill-rule="evenodd">
        <g fill="#FFF">
            <g>
                <g>
                    <path d="M14 0c1.104 0 2 .896 2 2v12c0 1.104-.896 2-2 2H2c-1.104 0-2-.896-2-2V2C0 .896.896 0 2 0zM9.9 2.466H8.65v8.82h1.256v-.322l.176.115c1.069.649 2.434.589 3.445-.17 1.068-.8 1.498-2.198 1.067-3.46-.432-1.263-1.625-2.104-2.963-2.084h-.226l-.23.026c-.457.068-.893.24-1.276.505v-3.43zM7.268 7.553c-.432-1.418-1.824-2.337-3.313-2.159-1.549.186-2.714 1.5-2.714 3.059.007 1.555 1.172 2.86 2.716 3.046 1.544.184 2.984-.81 3.358-2.319h-1.39l-.072.137c-.385.665-1.163 1.01-1.923.834-.812-.186-1.382-.914-1.37-1.746.012-.832.6-1.543 1.418-1.707.816-.164 1.636.264 1.968 1.027h1.369zm4.293-.848l.091.002c.948.013 1.718.77 1.746 1.719.005.078.005.157 0 .238v.055l-.02.109-.028.107c-.024.076-.05.152-.086.225v.025l-.078.145c-.252.422-.671.722-1.158.824l-.167.025h-.038l-.095.002-.096-.002c-.08 0-.16-.006-.24-.018h-.055l-.153-.032c-.101-.026-.2-.06-.295-.105h-.034l-.14-.076c-.092-.056-.178-.12-.258-.19-.12-.11-.225-.236-.311-.373-.043-.07-.08-.144-.113-.22-.204-.465-.196-.995.02-1.455.265-.558.802-.939 1.417-1.003l.091-.002z" transform="translate(-488 -248) translate(416 248) translate(72)"/>
                </g>
            </g>
        </g>
    </g>
</svg>
