<svg xmlns="http://www.w3.org/2000/svg" width="16" height="16" viewBox="0 0 16 16">
    <g fill="none" fill-rule="evenodd">
        <g fill="#FFF">
            <g>
                <path d="M7.096.662c4.134-.401 7.87 2.378 8.496 6.321.047.337-.197.648-.547.699-.35.05-.678-.177-.738-.512-.045-.277-.11-.55-.195-.819-.02-.066-.084-.111-.155-.111h-1.823c-.048 0-.093.019-.124.053s-.046.08-.04.124c.033.196.06.396.08.605.022.336-.238.628-.587.66-.35.032-.662-.208-.706-.542-.027-.276-.068-.529-.117-.775-.015-.073-.082-.125-.16-.125h-5.2c-.077 0-.144.052-.16.125-.11.576-.165 1.161-.164 1.747-.002.692.075 1.383.231 2.06.015.072.082.124.159.124h.26c.312.007.575.226.626.521.051.296-.124.585-.416.688-.044.014-.08.045-.097.086-.019.04-.018.086.001.126 1.306 2.751 2.98 2.428 2.785 3.377-.054.291-.317.504-.626.506l-.253-.004C3.586 15.471.296 12.39.09 8.488-.118 4.505 2.963 1.063 7.096.662zm.844 7.2c.153-.144.374-.199.58-.144l5.75 1.573c.2.055.355.207.408.401.052.194-.006.4-.153.542l-.81.777c-.063.061-.063.16 0 .221l1.71 1.646c.111.106.173.25.173.4 0 .15-.062.295-.173.4l-1.5 1.445c-.111.106-.261.166-.417.166-.157 0-.307-.06-.417-.166l-1.713-1.645c-.064-.06-.166-.06-.23 0l-.736.703c-.147.144-.363.201-.565.15-.203-.05-.362-.201-.417-.395l-1.638-5.52c-.059-.197-.002-.408.148-.554zm-3.814 3.682H2.768c-.061 0-.117.033-.145.086-.028.053-.022.116.015.164.641.837 1.49 1.507 2.467 1.952.067.03.147.013.194-.042.047-.054.05-.132.008-.19-.427-.576-.773-1.205-1.029-1.868-.023-.061-.084-.102-.152-.102zM3.625 6.24H1.801c-.072 0-.135.045-.156.112-.388 1.259-.348 2.605.115 3.84.024.062.085.104.154.104h1.774c.049 0 .095-.021.126-.058.03-.036.043-.083.034-.13-.129-.658-.193-1.326-.192-1.996-.002-.566.042-1.132.13-1.692.007-.045-.007-.091-.037-.126-.031-.034-.077-.054-.124-.054zm4.35-4.2C7.92 2 7.844 2 7.788 2.04c-.98.698-1.738 1.646-2.187 2.736-.02.048-.015.103.015.147.03.043.081.069.136.069h4.259c.054 0 .105-.026.135-.07.03-.043.035-.098.014-.146-.448-1.09-1.205-2.037-2.184-2.736zm2.68.44c-.066-.03-.146-.014-.194.04-.048.055-.051.133-.008.191.487.667.87 1.4 1.133 2.174.021.064.084.107.154.107h1.47c.06 0 .115-.031.143-.081.029-.05.027-.112-.006-.16-.662-.98-1.593-1.766-2.692-2.27zM5.16 2.463l-.052.014c-1.102.502-2.035 1.29-2.694 2.275-.032.048-.034.109-.005.159.028.05.083.08.142.081h1.47c.07 0 .133-.043.154-.107.264-.776.646-1.51 1.135-2.177.043-.058.04-.136-.008-.19-.048-.054-.127-.07-.194-.04z" transform="translate(-256 -248) translate(256 248)"/>
            </g>
        </g>
    </g>
</svg>
