<svg xmlns="http://www.w3.org/2000/svg" width="24" height="8" viewBox="0 0 24 8">
    <g fill="none" fill-rule="evenodd">
        <g fill="#FFF">
            <g>
                <path d="M8.25 13.75c1.795 0 3.25 1.455 3.25 3.25s-1.455 3.25-3.25 3.25S5 18.795 5 17s1.455-3.25 3.25-3.25zm8.75 0c1.795 0 3.25 1.455 3.25 3.25s-1.455 3.25-3.25 3.25-3.25-1.455-3.25-3.25 1.455-3.25 3.25-3.25zm8.75 0c1.795 0 3.25 1.455 3.25 3.25s-1.455 3.25-3.25 3.25S22.5 18.795 22.5 17s1.455-3.25 3.25-3.25z" transform="translate(-888 -208) translate(883 195)"/>
            </g>
        </g>
    </g>
</svg>
