<svg xmlns="http://www.w3.org/2000/svg" width="16" height="16" viewBox="0 0 16 16">
    <g fill="none" fill-rule="evenodd">
        <g fill="#FFF">
            <g>
                <g>
                    <path d="M14.815 0C15.467 0 16 .516 16 1.153v13.694c0 .638-.533 1.153-1.185 1.153H1.18C.528 16 0 15.485 0 14.847V1.153C0 .516.528 0 1.18 0zm-4.028 5.807c-1.155 0-1.928.634-2.246 1.234H8.51V6H6.234v7.635h2.37V9.857c0-.996.188-1.96 1.423-1.96 1.217 0 1.235 1.14 1.235 2.025v3.713h2.37V9.444c0-2.057-.444-3.637-2.845-3.637zM4.746 6H2.37v7.635h2.376V6zM3.558 2.203c-.762 0-1.375.617-1.375 1.376 0 .759.612 1.376 1.375 1.376.76 0 1.376-.617 1.376-1.376 0-.759-.616-1.376-1.376-1.376z" transform="translate(-464 -248) translate(416 248) translate(48)"/>
                </g>
            </g>
        </g>
    </g>
</svg>
