<svg xmlns="http://www.w3.org/2000/svg" width="10" height="16" viewBox="0 0 10 16">
    <g fill="none" fill-rule="evenodd">
        <g fill="#FFF">
            <g>
                <path d="M8 0c2.76.003 4.997 2.39 5 5.333 0 2.343-3.125 8.018-4.467 10.349-.113.198-.315.32-.533.318-.217 0-.419-.12-.532-.317C6.125 13.35 3 7.673 3 5.333 3.003 2.39 5.24.003 8 0zm0 3c-1.105 0-2 .895-2 2s.895 2 2 2 2-.895 2-2-.895-2-2-2z" transform="translate(-155 -248) translate(152 248)"/>
            </g>
        </g>
    </g>
</svg>
