<svg xmlns="http://www.w3.org/2000/svg" width="16" height="13" viewBox="0 0 16 13">
    <g fill="none" fill-rule="evenodd">
        <g fill="#FFF">
            <g>
                <g>
                    <path d="M15.969 3.548c-.59.26-1.22.436-1.884.517.676-.408 1.196-1.05 1.442-1.815-.634.37-1.336.639-2.084.789C12.845 2.399 11.994 2 11.049 2c-1.811 0-3.28 1.468-3.28 3.277 0 .26.03.51.085.749-2.727-.129-5.143-1.438-6.76-3.416-.285.48-.445 1.04-.445 1.65 0 1.139.58 2.14 1.459 2.729-.538-.017-1.044-.165-1.485-.41v.04c0 1.59 1.128 2.915 2.63 3.217-.275.074-.566.114-.864.114-.21 0-.41-.02-.61-.057.42 1.301 1.63 2.25 3.069 2.277-1.12.879-2.54 1.403-4.068 1.403-.26 0-.52-.016-.78-.045C1.46 14.457 3.179 15 5.038 15c6.036 0 9.332-4.996 9.332-9.32 0-.14 0-.28-.01-.42C15 4.8 15.56 4.22 16 3.56l-.031-.013z" transform="translate(-440 -250) translate(416 248) translate(24)"/>
                </g>
            </g>
        </g>
    </g>
</svg>
