<svg xmlns="http://www.w3.org/2000/svg" width="16" height="16" viewBox="0 0 16 16">
    <g fill="none" fill-rule="evenodd">
        <g fill="#FFF">
            <g>
                <path d="M8 0c4.418 0 8 3.582 8 8s-3.582 8-8 8-8-3.582-8-8 3.582-8 8-8zm0 1C4.134 1 1 4.134 1 8s3.134 7 7 7 7-3.134 7-7-3.134-7-7-7zm-.5 5.5c.52 0 .947.397.995.904L8.5 7.5V10c0 .253.188.462.432.495L9 10.5h.5c.276 0 .5.224.5.5 0 .253-.188.462-.432.495L9.5 11.5H9c-.794 0-1.444-.617-1.497-1.397L7.5 10V7.5H7c-.276 0-.5-.224-.5-.5 0-.253.188-.462.432-.495L7 6.5h.5zM7.75 4l.082.004c.375.041.668.36.668.746 0 .414-.336.75-.75.75S7 5.164 7 4.75c0-.387.293-.705.668-.746L7.75 4z" transform="translate(-896 -404) translate(896 404)"/>
            </g>
        </g>
    </g>
</svg>
