<svg xmlns="http://www.w3.org/2000/svg" width="60" height="19" viewBox="0 0 60 19">
    <g fill="none" fill-rule="evenodd">
        <g fill="#FFF">
            <g>
                <g>
                    <g>
                        <path d="M12.047 4.27l.01.038.188-.08c1.263-.495 2.708-.355 3.862.412l.2.141c1.448 1.088 2.036 2.98 1.461 4.697-.55 1.645-2.051 2.775-3.768 2.864l-.225.005h-.844c-.303 0-.548-.245-.548-.548 0-.27.194-.493.45-.54l.098-.008h.845c1.338.002 2.527-.853 2.952-2.122.425-1.268-.01-2.667-1.08-3.47-1.07-.805-2.533-.834-3.634-.073-.327.226-.778.04-.851-.35-.471-2.508-2.731-4.276-5.28-4.13-2.547.145-4.59 2.16-4.773 4.705-.182 2.546 1.554 4.831 4.055 5.338.297.06.489.35.429.646-.06.297-.35.49-.647.429C1.906 11.607-.206 8.829.016 5.733.237 2.637 2.723.187 5.82.01c2.833-.162 5.373 1.622 6.226 4.26zm-3 13.699h.015c-.017.001-.035.003-.053.003h-.036c-.019 0-.036-.002-.054-.005l-.039-.006c-.015-.004-.03-.007-.044-.012-.017-.005-.033-.01-.05-.017l-.033-.015-.028-.015-.026-.015c-.033-.022-.064-.046-.093-.075l.04.036.03.023-.07-.06L5.793 15l-.07-.086c-.14-.213-.117-.502.07-.69l.086-.07c.213-.14.503-.117.69.07l1.876 1.878v-5.427l.01-.099c.046-.255.27-.45.539-.45.303 0 .548.246.548.549V16.1l1.876-1.876.086-.07c.213-.141.503-.118.69.07.214.214.214.561 0 .775l-2.812 2.813c-.028.026-.053.047-.087.07l-.015.01c-.018.011-.038.021-.057.03l-.028.012c-.016.007-.032.012-.048.017l-.025.006-.024.006-.051.006-.019.001.019-.001z" transform="translate(-46 -290) translate(28 280) translate(18.5 10) translate(0 1)"/>
                    </g>
                    <text font-family="OpenSans-SemiBold, Open Sans" font-size="14" font-weight="500" letter-spacing="1.25" transform="translate(-46 -290) translate(28 280) translate(18.5 10)">
                        <tspan x="26.456" y="15">PDF</tspan>
                    </text>
                </g>
            </g>
        </g>
    </g>
</svg>
